<svg fill="none" viewBox="0 0 38 38">
                    <path
                      fill="#fff"
                      d="M5.717.048c-.466.086-.979.38-1.25.73-.39.52-.436.777-.436 2.61v1.694l-1.258.032c-1.236.023-1.274.03-1.686.256-.226.124-.513.35-.637.497-.49.598-.459-.303-.443 14.109l.023 13.13.171.318c.21.389.583.754.948.94.264.132.722.14 7.295.163l7.008.016v1.546c0 1.406.015 1.561.147 1.724l.148.187h9.976l.147-.187c.132-.163.148-.318.148-1.724v-1.546h2.859c3.193 0 3.348-.023 3.853-.513a3.06 3.06 0 00.459-.598c.163-.311.17-.435.194-2.168l.023-1.849h1.243c1.329 0 1.538-.046 2.051-.427.148-.117.373-.42.505-.684l.233-.466-.008-13.099c0-9.82-.023-13.16-.093-13.347A2.133 2.133 0 0036.304.235l-.458-.226L20.968.002C12.787-.006 5.927.017 5.718.048zm30.276 1.173c.427.334.435.412.435 2.945v2.33H17.27l-1.196-1.212c-.66-.668-1.266-1.258-1.351-1.32-.133-.086-.669-.109-2.937-.109H9.003l-.295.264-.287.264-.024 1.057-.03 1.056H5.04v-2.33c0-2.533.008-2.61.435-2.945l.21-.163h30.097l.21.163zM15.421 6.077c.652.684 1.266 1.266 1.406 1.32.21.094 1.973.11 9.929.11h9.672v10.06c0 10.986.031 10.31-.435 10.675-.202.163-.248.163-5.345.155-3.613 0-5.08-.023-4.941-.085.109-.039.31-.124.45-.187.133-.062.32-.217.412-.357.327-.528.327-.544-2.563-5.733-1.461-2.626-2.727-4.84-2.813-4.918-.24-.195-.715-.171-.948.039-.108.1-1.383 2.33-2.843 4.964-2.898 5.229-2.844 5.12-2.47 5.671.116.18.318.319.598.436l.427.17-5.136.008c-5.096 0-5.143 0-5.345-.163-.466-.365-.435.31-.435-10.675V7.507H6.79c2.525 0 2.549-.016 2.587-1.601l.031-1.041h4.864l1.15 1.212zM4.03 16.938c0 11.887-.03 11.149.466 11.778.14.17.428.396.684.52l.443.218 5.726.023 5.726.024.124.396c.062.225.116.497.116.621 0 .218 0 .218-.512.218-1.088 0-1.352.365-1.352 1.849v.948H8.599c-5.33 0-6.906-.023-7.054-.101a1.312 1.312 0 01-.365-.358l-.179-.264.016-13.036.023-13.037.233-.24c.311-.327.536-.373 1.733-.381l1.025-.008v10.83zm16.16 3.605v1.227l-.272.133c-.878.419-.987 1.95-.186 2.563 1.064.8 2.556.086 2.556-1.227 0-.536-.257-1.018-.669-1.274l-.334-.202-.007-1.243c0-.684.03-1.205.062-1.166.054.062 3.923 7.039 4.28 7.715.078.148.07.179-.046.218-1.367.427-2.424 1.794-2.432 3.154v.295h-4.817v-.295c0-.381-.186-1.104-.396-1.5-.334-.66-1.36-1.538-1.942-1.662-.132-.031-.225-.078-.21-.11.062-.162 4.359-7.854 4.382-7.854.015 0 .03.552.03 1.228zm.886 2.276c.28.218.256.645-.047.87-.567.42-1.189-.435-.637-.87.264-.21.42-.202.684 0zm11.311 8.267c0 1.864-.03 2.02-.49 2.291-.232.148-.41.156-3.06.156h-2.82v-.948c0-1.492-.257-1.85-1.321-1.85h-.567l.054-.434c.023-.241.101-.536.163-.66l.125-.226h7.916v1.67zm-7.38 3.263v2.602h-8.546v-.722c0-.404.023-1.57.054-2.603l.047-1.88h8.445v2.603z"
                    />
                    <path
                      fill="#fff"
                      d="M26.367 2.441c-.49.226-.893.816-.893 1.298 0 .24.194.699.396.932.66.754 1.88.598 2.315-.288.443-.924-.116-1.942-1.126-2.05-.28-.024-.466 0-.692.108zm.8.995c.202.14.218.388.04.59-.296.326-.816 0-.653-.427.116-.295.342-.358.614-.163zM29.965 2.379c-.808.24-1.228 1.25-.847 2.004.179.358.357.52.73.676.676.28 1.468-.023 1.818-.7.155-.294.155-.947 0-1.258-.31-.598-1.057-.917-1.701-.722zm.668 1.056c.28.272.1.73-.272.73-.365 0-.505-.52-.21-.73.218-.155.334-.155.482 0zM33.282 2.449c-.373.17-.614.42-.777.8-.156.373-.148.652.03 1.033.428.948 1.586 1.181 2.3.466.715-.714.482-1.872-.466-2.3-.396-.178-.699-.178-1.087 0zm.815 1.017c.086.086.156.218.156.288 0 .194-.233.412-.435.412-.179 0-.42-.257-.42-.443 0-.14.288-.412.427-.412.063 0 .187.07.272.155zM19.282 11.243a1.102 1.102 0 00-.443.311c-.179.21-.202.31-.202.816v.575h-3.574c-3.17 0-3.573-.016-3.573-.117 0-.225-.296-.707-.614-.994-1.002-.901-2.626-.52-3.154.746-.171.411-.148 1.173.046 1.577.179.38.668.854 1.049 1.01.319.132 1.033.14 1.437.015.389-.116.886-.536 1.088-.924l.148-.303h2.408c1.329 0 2.408.015 2.408.03 0 .016-.233.164-.52.32-2.098 1.157-3.815 3.27-4.6 5.694l-.225.676-.567.039c-1.095.078-1.157.194-1.157 2.144v1.445l.303.303.303.303h1.445c2.097 0 2.16-.046 2.206-1.779.047-1.468-.016-1.841-.334-2.16-.233-.233-.303-.256-.691-.256h-.436l.047-.218c.031-.116.155-.474.28-.792.947-2.432 3.014-4.397 5.492-5.244.73-.249.785-.241.785.015 0 .311.155.575.459.777.248.171.334.179 1.608.179.738 0 1.43-.031 1.53-.07.295-.117.52-.396.614-.77.078-.318.093-.333.326-.279.132.031.56.179.948.342 1.958.785 3.714 2.4 4.662 4.28.31.622.652 1.516.652 1.702 0 .039-.17.078-.38.078-.475 0-.816.256-.94.684-.11.396-.094 2.548.023 2.89.054.147.21.341.357.442.249.171.334.18 1.733.18h1.46l.295-.265.288-.264.023-1.445c.031-1.997-.085-2.222-1.22-2.222h-.543l-.133-.45c-.07-.242-.248-.739-.404-1.104a9.87 9.87 0 00-3.837-4.576c-.366-.24-.739-.474-.816-.528-.109-.07.38-.093 2.284-.093 2.408-.008 2.424-.008 2.47.155.086.272.676.862 1.01 1.01.202.093.498.147.816.147.925 0 1.655-.52 1.904-1.351.147-.49.147-.7-.008-1.204-.396-1.345-2.175-1.834-3.224-.886-.319.287-.614.769-.614.994 0 .101-.404.117-3.574.117h-3.574v-.536c0-.637-.202-1.003-.621-1.15-.326-.109-2.556-.124-2.93-.016zm2.548 1.212c0 .163.024.668.039 1.127l.039.839H19.67l-.054-1.057c-.023-.575-.031-1.08-.008-1.126.031-.039.529-.07 1.134-.07h1.08l.008.287zm-11.731.047c.56.373.59 1.282.046 1.608-.458.28-1.126.156-1.406-.264-.07-.109-.124-.342-.124-.52 0-.809.824-1.267 1.484-.824zm22.243-.062c.334.155.513.49.513.932 0 .31-.04.404-.265.63-.233.232-.31.264-.668.264-.357 0-.435-.031-.66-.257-.334-.334-.404-.614-.264-1.018.194-.567.792-.807 1.344-.551zM12.46 22.773c.03.582.046 1.064.03 1.08-.015.015-.527.046-1.133.07l-1.112.046v-.295c0-.163-.023-.668-.054-1.119l-.046-.831h2.26l.055 1.049zm18.84.03v1.073l-1.065.046c-.59.024-1.095.024-1.126.008-.031-.023-.062-.528-.062-1.126v-1.08H31.3v1.08z"
                    />
                  </svg>